<?xml version="1.0" encoding="utf-8"?>
<!-- Generator: Adobe Illustrator 24.1.0, SVG Export Plug-In . SVG Version: 6.00 Build 0)  -->
<svg version="1.1" id="Laag_2" xmlns="http://www.w3.org/2000/svg" xmlns:xlink="http://www.w3.org/1999/xlink" x="0px" y="0px"
	 viewBox="0 0 566.9 566.9" style="enable-background:new 0 0 566.9 566.9;" xml:space="preserve">
<style type="text/css">
	.st0{fill:#C9C9C7;}
</style>
<path class="st0" d="M282.6,434C201,434,134.6,367.6,134.6,286S201,137.9,282.6,137.9S430.7,204.3,430.7,286S364.3,434,282.6,434z
	 M282.6,189.5c-53.3,0-96.5,43.2-96.5,96.5s43.2,96.5,96.5,96.5s96.5-43.2,96.5-96.5C379.1,232.7,335.9,189.6,282.6,189.5
	L282.6,189.5z"/>
<circle class="st0" cx="439.3" cy="131.1" r="40.8"/>
<path class="st0" d="M428,566.9H137.3C61.4,566.8,0,505.3-0.1,429.5V138.8C0,63,61.4,1.5,137.3,1.4H428
	C503.8,1.5,565.3,63,565.4,138.8v290.7C565.3,505.4,503.8,566.8,428,566.9z M137.3,53C89.9,53,51.5,91.4,51.5,138.8v290.7
	c0.1,47.4,38.4,85.7,85.8,85.8H428c47.4-0.1,85.7-38.4,85.8-85.8V138.8c0-47.4-38.4-85.8-85.8-85.8H137.3z"/>
</svg>
