<?xml version="1.0" encoding="utf-8"?>
<!-- Generator: Adobe Illustrator 24.1.0, SVG Export Plug-In . SVG Version: 6.00 Build 0)  -->
<svg version="1.1" id="Laag_1" xmlns="http://www.w3.org/2000/svg" xmlns:xlink="http://www.w3.org/1999/xlink" x="0px" y="0px"
	 viewBox="0 0 154.2 52.2" style="enable-background:new 0 0 154.2 52.2;" xml:space="preserve">
<style type="text/css">
	.st0{fill:#EB5B26;}
	.st1{fill:#FFFFFF;}
</style>
<rect class="st0" width="154.2" height="52.2"/>
<path class="st1" d="M54.3,24v-5.8h1.6c0.8-0.1,1.7,0.2,2.2,0.9c0.2,0.3,0.3,0.7,0.4,1.1c0.1,1,0.1,1.9,0,2.9c0,0.4-0.2,0.7-0.3,1
	h3.2c0.2-0.8,0.3-1.6,0.3-2.4c0-4.2-1.8-6.4-5.5-6.4h-5V24L54.3,24z"/>
<path class="st1" d="M38.2,24v-3.6c-0.1-0.6,0.2-1.2,0.6-1.6c0.4-0.4,0.9-0.5,1.5-0.5c0.5,0,1.1,0.2,1.5,0.5c0.5,0.4,0.7,1,0.6,1.6
	V24h3.1v-3.6c0-0.8-0.1-1.6-0.4-2.3c-0.3-0.6-0.7-1.2-1.2-1.7c-1.5-1.3-3.6-1.7-5.4-1c-0.6,0.2-1.2,0.6-1.7,1
	c-0.5,0.5-0.9,1-1.2,1.7c-0.3,0.7-0.5,1.5-0.5,2.3V24H38.2z"/>
<polygon class="st1" points="30.6,24 31.9,15.3 28.7,15.3 27.4,24 "/>
<polygon class="st1" points="26,24 24.6,15.3 22.2,15.3 20.6,24 "/>
<polygon class="st1" points="19.3,24 18.2,15.3 14.9,15.3 16.2,24 "/>
<path class="st1" d="M86.8,24v-5.8h1.4c2.8,0.1,3.4,1.3,3.4,2.9c0.2,1.2-0.4,2.4-1.4,3H94c0.4-0.9,0.6-2,0.6-3
	c0-2.1-0.9-5.8-6.7-5.9h-0.2l-4,0.1V24L86.8,24z"/>
<path class="st1" d="M102.5,24v-3.6c-0.1-0.6,0.2-1.2,0.6-1.6c0.4-0.4,0.9-0.5,1.5-0.5c0.5,0,1.1,0.2,1.5,0.5c0.5,0.4,0.7,1,0.6,1.6
	V24h3.1v-3.6c0-0.8-0.1-1.6-0.4-2.3c-0.3-0.6-0.7-1.2-1.2-1.7c-1.5-1.3-3.6-1.7-5.4-1c-0.6,0.2-1.2,0.6-1.7,1
	c-0.5,0.5-0.9,1-1.2,1.7c-0.3,0.7-0.5,1.5-0.5,2.3V24H102.5z"/>
<polygon class="st1" points="119.8,24 120.9,24 123.7,24 121.7,15.1 119,15.1 117,24 "/>
<polygon class="st1" points="16.8,28.1 18.1,36.9 21,36.9 22.4,28.1 "/>
<rect x="67.6" y="15.3" class="st1" width="3.1" height="8.8"/>
<polygon class="st1" points="74.2,24 74.2,23.9 78.4,15.3 75.3,15.3 71.3,24 "/>
<path class="st1" d="M42.4,28.1v3.7c0.1,0.6-0.2,1.2-0.6,1.7c-0.4,0.3-0.9,0.5-1.5,0.5c-0.5,0-1.1-0.2-1.5-0.5
	c-0.4-0.4-0.7-1-0.6-1.7v-3.7h-3.1v3.7c0,0.8,0.1,1.6,0.5,2.3c0.3,0.6,0.7,1.2,1.2,1.6c0.5,0.4,1,0.8,1.7,1c1.2,0.5,2.5,0.5,3.7,0
	c0.6-0.2,1.2-0.6,1.7-1c0.5-0.4,0.9-1,1.2-1.6c0.3-0.7,0.5-1.5,0.4-2.3v-3.7H42.4z"/>
<polygon class="st1" points="116.1,28.1 114,37.1 117.2,37.1 119,28.1 "/>
<path class="st1" d="M106.7,28.1v3.7c0.1,0.6-0.2,1.2-0.6,1.7c-0.4,0.4-0.9,0.5-1.5,0.5c-0.5,0-1.1-0.2-1.5-0.5
	c-0.4-0.4-0.7-1-0.6-1.7v-3.7h-3.1v3.7c0,0.8,0.1,1.6,0.5,2.3c0.3,0.6,0.7,1.2,1.2,1.6c0.5,0.4,1,0.8,1.7,1c1.2,0.5,2.5,0.5,3.7,0
	c0.6-0.2,1.2-0.6,1.7-1c0.5-0.4,0.9-1,1.2-1.6c0.3-0.7,0.5-1.5,0.4-2.3v-3.7H106.7z"/>
<polygon class="st1" points="121.7,28.1 123.5,37.1 126.6,37.1 124.6,28.1 "/>
<rect x="132.6" y="28.1" class="st1" width="3.1" height="8.8"/>
<polygon class="st1" points="24.1,28.1 25.8,36.9 28.7,36.9 30,28.1 "/>
<polygon class="st1" points="129,15.3 129,18.2 132.6,18.2 132.6,24 135.7,24 135.7,18.2 139.3,18.2 139.3,15.3 "/>
<rect x="51.2" y="28.1" class="st1" width="3.1" height="8.8"/>
<polygon class="st1" points="56.3,28.1 59,36.9 62.3,36.9 59.3,28.1 "/>
<path class="st1" d="M90.3,28.1c0.9,0.7,1.4,1.7,1.2,2.8c0,1.6-0.6,2.7-3.4,2.9h-1.4v-5.7h-3.1v8.7l4,0.1h0.1
	c5.8-0.1,6.7-3.7,6.7-5.9c0-1-0.2-1.9-0.5-2.8H90.3z"/>
<polygon class="st1" points="72.7,28.1 75.9,36.9 79.2,36.9 75.8,28.1 "/>
<polygon class="st1" points="67.6,28.1 67.6,36.9 70.7,36.9 70.7,30.4 71.9,28.1 "/>
</svg>
